<svg xmlns="http://www.w3.org/2000/svg" width="600" height="600"><rect width="600" height="600" x="0" y="0" fill="#FFFFFF" id="background"/><g transform="translate(300,303)" id="chord_diagram"><g><g><path fill="rgb(254, 203, 123)" d="M1.279755905108984e-14,-209A209,209,0,0,1,96.7157339453574,-185.27565087569076L92.08818686663216,-176.41078719742805A199,199,0,0,0,1.2185235651516165e-14,-199Z"/></g><g><path fill="rgb(94, 79, 162)" d="M105.90006321531916,-180.18373015061988A209,209,0,0,1,202.38896219003627,-52.150819587424174L192.70527978859914,-49.6555650617101A199,199,0,0,0,100.83307454472974,-171.56249904293472Z"/></g><g><path fill="rgb(158, 1, 66)" d="M204.7530221951111,-41.91896828368209A209,209,0,0,1,207.34094748606705,26.28177116520098L197.42032798912604,25.02427015251194A199,199,0,0,0,194.95622687477083,-39.91327602130496Z"/></g><g><path fill="rgb(240, 112, 74)" d="M205.75907879943267,36.66335352376889A209,209,0,0,1,178.38547800433474,108.90188812488519L169.8502876691991,103.69127146819211A199,199,0,0,0,195.91414679945981,34.90912608244024Z"/></g><g><path fill="rgb(77, 102, 172)" d="M172.69014307778824,117.72474032153576A209,209,0,0,1,146.33574787111942,149.2208058381946L139.33403744666396,142.0810543626829A199,199,0,0,0,164.42745680612373,112.09197762672544Z"/></g><g><path fill="rgb(238, 248, 168)" d="M138.65564656859758,156.38290083843614A209,209,0,0,1,105.39886955376689,180.47736228343993L100.35586144114646,171.84208179140933A199,199,0,0,0,132.02140510598525,148.90046539162103Z"/></g><g><path fill="rgb(254, 221, 141)" d="M96.20042378063225,185.54373733550472A209,209,0,0,1,66.78376440905214,198.04274490966898L63.58836898278171,188.56701548815371A199,199,0,0,0,91.59753269064984,176.6660465539016Z"/></g><g><path fill="rgb(67, 125, 179)" d="M56.751752490875134,201.14730569712944A209,209,0,0,1,34.46300664937653,206.13903359792155L32.81405896280349,196.2759219425186A199,199,0,0,0,54.0363576348524,191.52303269726679Z"/></g><g><path fill="rgb(200, 49, 74)" d="M24.065116680530735,207.60989899123896A209,209,0,0,1,-7.872682850907413,208.85167192227365L-7.495999460911843,198.85876895948545A199,199,0,0,0,22.913675691031656,197.67641100122754Z"/></g><g><path fill="#cccccc" d="M-18.353387384749567,208.1925867352277A209,209,0,0,1,-31.962493807850013,206.54151880332233L-30.433187884029437,196.65914948258919A199,199,0,0,0,-17.47523487830222,198.23121894885318Z"/></g><g><path fill="#cccccc" d="M-42.29674983648455,204.67531593543427A209,209,0,0,1,-51.20520503983505,202.6302716200826L-48.75519522931663,192.9350433129016A199,199,0,0,0,-40.27298190172453,194.88223861794938Z"/></g><g><path fill="#cccccc" d="M-61.318708065490995,199.80244253056338A209,209,0,0,1,-69.99591901418934,196.93037175956135L-66.64683198001761,187.50786593374502A199,199,0,0,0,-58.38479858867324,190.24251705063213Z"/></g><g><path fill="rgb(253, 183, 106)" d="M-79.79939538530958,193.16587818799425A209,209,0,0,1,-88.16876682796203,189.49213322994825L-83.95016554432749,180.42552398449618A199,199,0,0,0,-75.98124249606032,183.92349167182226Z"/></g><g><path fill="#cccccc" d="M-97.57567955223206,184.8242050163347A209,209,0,0,1,-113.3490908222442,175.59323338264102L-107.92568934749566,167.19164326863904A199,199,0,0,0,-92.90698675068987,175.98094161842394Z"/></g><g><path fill="rgb(247, 135, 81)" d="M-122.0260744328461,169.6780397061137A209,209,0,0,1,-129.3281197749684,164.18050260451585L-123.1401714603766,156.3249761641084A199,199,0,0,0,-116.18750627816446,161.55947321299823Z"/></g><g><path fill="#cccccc" d="M-137.41166987654861,157.47708716425518A209,209,0,0,1,-144.16554690367195,151.3185219527509L-137.26767384608002,144.07840128515517A199,199,0,0,0,-130.8369488298238,149.94229830472145Z"/></g><g><path fill="rgb(180, 25, 71)" d="M-151.58430859246647,143.88605696364013A209,209,0,0,1,-163.57482097544653,130.09334319191976L-155.7482745172912,123.8687813167083A199,199,0,0,0,-144.3314708607695,137.00155663045163Z"/></g><g><path fill="rgb(253, 245, 173)" d="M-169.90293871710531,121.71274138434136A209,209,0,0,1,-179.88632499089368,106.4044645739575L-171.27932379515715,101.31334186706958A199,199,0,0,0,-161.77361150576056,115.8891652415499Z"/></g><g><path fill="#cccccc" d="M-185.00395727474822,97.23443727755685A209,209,0,0,1,-192.79115267451579,80.70050464793599L-183.56669560874948,76.83923648296297A199,199,0,0,0,-176.1520932903105,92.58207185757806Z"/></g><g><path fill="rgb(105, 189, 169)" d="M-196.6013820902111,70.91471328447165A209,209,0,0,1,-199.5139393896268,62.25100793748095L-189.9678178877308,59.27249081128569A199,199,0,0,0,-187.19461739689956,67.52166480196104Z"/></g><g><path fill="rgb(250, 160, 92)" d="M-202.38896219003612,52.150819587424834A209,209,0,0,1,-204.47558183448126,43.252010744592525L-194.69206117254438,41.18253654628666A199,199,0,0,0,-192.70527978859897,49.655565061710725Z"/></g><g><path fill="#cccccc" d="M-206.3900196929208,32.92658152854265A209,209,0,0,1,-207.6322827275983,23.871220524445206L-197.69772374541654,22.7290568629885A199,199,0,0,0,-196.5148991334509,31.351147005645874Z"/></g><g><path fill="rgb(217, 70, 75)" d="M-208.56923656786577,13.41169480332903A209,209,0,0,1,-208.956177320741,4.279714885719752L-198.9582740996529,4.074943838556128A199,199,0,0,0,-198.5898472583985,12.769986918002282Z"/></g><g><path fill="rgb(224, 243, 161)" d="M-208.90737648820286,-6.2215792863443005A209,209,0,0,1,-207.5651355132887,-24.448200738502255L-197.63378931648063,-23.27843036823899A199,199,0,0,0,-198.9118082351788,-5.92389606690199Z"/></g><g><path fill="#cccccc" d="M-206.07508427183618,-34.843358654923186A209,209,0,0,1,-204.354581781211,-43.82014268605635L-194.57685059550712,-41.72348514126896A199,199,0,0,0,-196.21503239280096,-33.17621230779768Z"/></g><g><path fill="rgb(182, 226, 161)" d="M-201.8955285396125,-54.02958037696112A209,209,0,0,1,-199.34015458592728,-62.80527660681557L-189.80234814640923,-59.80023944859473A199,199,0,0,0,-192.2354554037459,-51.44443299050365Z"/></g><g><path fill="rgb(248, 249, 176)" d="M-195.93380583516756,-72.73887358865859A209,209,0,0,1,-192.56611714909812,-81.23601741912154L-183.3524273333518,-77.34912663351764A199,199,0,0,0,-186.55898258946578,-69.25854470881846Z"/></g><g><path fill="rgb(83, 170, 175)" d="M-188.24254132250695,-90.80608810230876A209,209,0,0,1,-184.0922650782629,-98.94967376578147L-175.28402273002067,-94.21523961430867A199,199,0,0,0,-179.23572116353532,-86.46129919789207Z"/></g><g><path fill="#cccccc" d="M-178.88962713222037,-108.07174147063222A209,209,0,0,1,-173.993398540604,-115.78988411899608L-165.6683555482306,-110.24969827598193A199,199,0,0,0,-170.33031482924332,-102.90084474954935Z"/></g><g><path fill="rgb(205, 235, 159)" d="M-167.9576230658275,-124.3834267660986A209,209,0,0,1,-156.44917931121628,-138.58085832050142L-148.96357264560785,-131.95019524296546A199,199,0,0,0,-159.92137315837164,-118.43206663374937Z"/></g><g><path fill="rgb(156, 215, 163)" d="M-149.29075726768176,-146.26438320535223A209,209,0,0,1,-135.94213499593087,-158.74739661722995L-129.4377266229198,-151.15182740109455A199,199,0,0,0,-142.14765883382137,-139.2660873582062Z"/></g><g><path fill="rgb(254, 235, 159)" d="M-127.79663214690659,-165.3753936107432A209,209,0,0,1,-120.44380779772597,-170.80482769285078L-114.6809461806099,-162.63234789893448A199,199,0,0,0,-121.68196075231776,-157.46269535185596Z"/></g><g><path fill="#cccccc" d="M-111.71222284324207,-176.63912156547264A209,209,0,0,1,-103.88230214372106,-181.3545348242515L-98.91185706507412,-172.6772843541916A199,199,0,0,0,-106.36714041055107,-168.18748895468448Z"/></g><g><path fill="rgb(69, 148, 180)" d="M-94.64171030398464,-186.34362524845506A209,209,0,0,1,-86.40380932700873,-190.3033939103082L-82.26965577069252,-181.1979683643604A199,199,0,0,0,-90.11339880618632,-177.42766231790696Z"/></g><g><path fill="rgb(231, 91, 73)" d="M-76.73577891460044,-194.40324131652116A209,209,0,0,1,-68.162615045977,-197.57241181423572L-64.90124590502117,-188.1191863685785A199,199,0,0,0,-73.06421054548082,-185.10165082290771Z"/></g><g><path fill="#cccccc" d="M-58.15248744815816,-200.7468261357868A209,209,0,0,1,-49.31973749759475,-203.09742364975568L-46.95994144507826,-193.37984357082001A199,199,0,0,0,-55.370071780782176,-191.14171483742376Z"/></g><g><path fill="rgb(130, 204, 165)" d="M-39.0558738530275,-205.31838377889204A209,209,0,0,1,-30.041506041760353,-206.8296591757161L-28.604113408183302,-196.93350323429428A199,199,0,0,0,-37.187171754796516,-195.49453766506946Z"/></g><g><path fill="#cccccc" d="M-19.614507261356586,-208.077560310799A209,209,0,0,1,-10.498092983090666,-208.73617329949877L-9.995791883421257,-198.7487965866041A199,199,0,0,0,-18.676014090956752,-198.1216961810957Z"/></g></g><g fill-opacity="0.7"><path fill="rgb(94, 79, 162)" d="M172.60044852699198,-97.02105528327958A198,198,0,0,1,176.22600688772516,-90.26845792638449Q0,0,95.00663162238287,-145.77290539660945L109.05273505415686,-160.44781387481686L100.5770959894968,-141.98678728078733Q0,0,172.60044852699198,-97.02105528327958Z"/><path fill="rgb(94, 79, 162)" d="M176.67739030500493,-89.38176410774709A198,198,0,0,1,180.0042416186787,-82.47710590996958Q0,0,172.91071439157807,-19.439260495042383L193.1688786824348,-17.93834743143264L173.53350209281575,-12.732778620659268Q0,0,176.67739030500493,-89.38176410774709Z"/><path fill="rgb(94, 79, 162)" d="M180.41642497436294,-81.57152444002786A198,198,0,0,1,183.43820641941653,-74.52801101349431Q0,0,46.82696212647862,167.58053472287685L48.58336124788908,187.81814877656822L40.306248132373014,169.26726311219065Q0,0,180.41642497436294,-81.57152444002786Z"/><path fill="rgb(94, 79, 162)" d="M183.81040138577578,-73.60527387626517A198,198,0,0,1,186.52133360680145,-66.43637640284336Q0,0,19.600732315664676,172.8924847779384L18.11873888687708,193.15204192850038L12.89483498360463,173.52153535151078Q0,0,183.81040138577578,-73.60527387626517Z"/><path fill="rgb(94, 79, 162)" d="M186.85282833652613,-65.4982483936838A198,198,0,0,1,189.2477264976658,-58.217677860463304Q0,0,-35.64159002441326,170.31053126724618L-43.40602247840371,189.08177387734736L-42.206174847464986,168.8035509245739Q0,0,186.85282833652613,-65.4982483936838Z"/><path fill="rgb(94, 79, 162)" d="M189.53788698532117,-57.26595321078328A198,198,0,0,1,191.61217068660542,-49.88763418691238Q0,0,-171.89543107342294,26.980748249114743L-192.19984640103905,26.367006720843403L-172.81084692022594,20.307909461936998Q0,0,189.53788698532117,-57.26595321078328Z"/><path fill="rgb(240, 112, 74)" d="M177.14202556483562,88.45735005519394A198,198,0,0,1,173.58587367517947,95.24675564251329Q0,0,-51.46780980911133,166.21391203341898L-60.959641563679796,184.17361944759537L-57.8619921897804,164.09750107734666Q0,0,177.14202556483562,88.45735005519394Z"/><path fill="rgb(240, 112, 74)" d="M173.105057095901,96.11784021618905A198,198,0,0,1,169.25545655996743,102.74526959756825Q0,0,-126.49995853633064,119.47284415425386L-143.59187673578484,130.45065325821554L-131.02897453282515,114.4875881171241Q0,0,173.105057095901,96.11784021618905Z"/><path fill="rgb(238, 248, 168)" d="M106.8131203686865,166.71819731842257A198,198,0,0,1,100.28083935413578,170.72713099689227Q0,0,171.89543107342303,-26.98074824911414L192.19984640103914,-26.36700672084272L172.81084692022603,-20.307909461936372Q0,0,106.8131203686865,166.71819731842257Z"/><path fill="rgb(200, 49, 74)" d="M0.7022174515927272,197.99875477045475A198,198,0,0,1,-6.961173734372503,197.87759362858617Q0,0,-171.49147593741773,-29.439322016752964L-190.53205180648231,-36.51762909078225L-170.22364843195606,-36.05425792488062Q0,0,0.7022174515927272,197.99875477045475Z"/><path fill="rgb(253, 183, 106)" d="M-76.05898521309165,182.8087272762291A198,198,0,0,1,-83.07698981501194,179.72816630477374Q0,0,-88.2623067579006,149.9525431787479L-101.6248016142955,165.25253310268826L-93.99958248009926,146.4243097766454Q0,0,-76.05898521309165,182.8087272762291Z"/><path fill="rgb(247, 135, 81)" d="M-116.00717262046567,160.45664804116242A198,198,0,0,1,-122.13018773164633,155.8467748932676Q0,0,-114.72919513138072,130.81747507311692L-130.71541677535558,143.35089751112508L-119.70608479597,126.27926695550636Q0,0,-116.00717262046567,160.45664804116242Z"/><path fill="rgb(180, 25, 71)" d="M-149.7547194724833,129.52808188079462A198,198,0,0,1,-154.65546691725785,123.63529654837635Q0,0,-81.62161295522168,153.6681889611119L-94.30237669758769,169.53778855814497L-87.50766516892944,150.39417720338287Q0,0,-149.7547194724833,129.52808188079462Z"/><path fill="rgb(253, 245, 173)" d="M-161.24988600699848,114.90202027262178A198,198,0,0,1,-165.5759696975045,108.5753114604378Q0,0,-157.60030904944549,73.74376304148896L-177.2736943608377,78.80378980518829L-160.33623727746001,67.58913385823226Q0,0,-161.24988600699848,114.90202027262178Z"/><path fill="rgb(253, 245, 173)" d="M-166.11948143296593,107.74190405057118A198,198,0,0,1,-170.1648090595791,101.23209845556386Q0,0,-139.5701221987154,-103.9046726063638L-153.34135113037493,-118.83783081793045L-135.4442828616156,-109.2284131538249Q0,0,-166.11948143296593,107.74190405057118Z"/><path fill="rgb(105, 189, 169)" d="M-186.42215274170692,66.71417366008285A198,198,0,0,1,-188.86443179106143,59.44935999856939Q0,0,0.43718546965797483,-173.9994507717341L4.242090315497342,-193.95361473753243L7.170911992172749,-173.85217289755258Q0,0,-186.42215274170692,66.71417366008285Z"/><path fill="rgb(250, 160, 92)" d="M-191.86044198120828,48.92413313259024A198,198,0,0,1,-193.61014401887198,41.46217713762324Q0,0,169.70746628627214,38.41062205554347L188.34976391531475,46.47974217920313L168.09377183105258,44.94979278717571Q0,0,-191.86044198120828,48.92413313259024Z"/><path fill="rgb(217, 70, 75)" d="M-197.6232087592379,12.209314464894264A198,198,0,0,1,-197.94767183307277,4.551836537720977Q0,0,-173.9093243399467,-5.616663388812028L-193.74137949274566,-10.013883974158826L-173.5616599965859,-12.343021478937569Q0,0,-197.6232087592379,12.209314464894264Z"/><path fill="rgb(224, 243, 161)" d="M-197.4281255315225,-15.037794024037966A198,198,0,0,1,-196.69822854879283,-22.66730874556715Q0,0,88.54223227200039,-149.78742638917038L101.93328094845204,-165.06243132549557L94.27290799666464,-146.24848313009062Q0,0,-197.4281255315225,-15.037794024037966Z"/><path fill="rgb(182, 226, 161)" d="M-191.14023665166437,-51.66633268140615A198,198,0,0,1,-188.99746807107587,-59.0250545338389Q0,0,115.10831587266091,130.48400521504433L125.49939457700061,147.9388453409256L109.97214077259652,134.84112226576957Q0,0,-191.14023665166437,-51.66633268140615Z"/><path fill="rgb(248, 249, 176)" d="M-185.4477725462205,-69.37667949423108A198,198,0,0,1,-182.6238502411089,-76.50182561947804Q0,0,170.5513864576014,-34.47063355074721L190.86321929458305,-34.74523737878193L171.75767965706143,-27.84420009305833Q0,0,-185.4477725462205,-69.37667949423108Z"/><path fill="rgb(83, 170, 175)" d="M-178.11832867359453,-86.47462628150151A198,198,0,0,1,-174.6381798976771,-93.3033017745169Q0,0,-148.70549987901938,-90.34751964349084L-163.817414992689,-103.9223486316255L-145.09749970738153,-96.03497060272583Q0,0,-178.11832867359453,-86.47462628150151Z"/><path fill="rgb(205, 235, 159)" d="M-153.4997145741008,-125.06733236808715A198,198,0,0,1,-148.54441095174573,-130.9143153936913Q0,0,-123.98356510433986,-122.0822492585139L-135.57423586350623,-138.76464452455596L-119.16590203326584,-126.78914698268969Q0,0,-153.4997145741008,-125.06733236808715Z"/><path fill="rgb(156, 215, 163)" d="M-134.87585753631777,-144.9569006768664A198,198,0,0,1,-129.1647488993248,-150.06820996391733Q0,0,-92.63464766455559,-147.29162247753143L-100.08454700421379,-166.18990177192273L-86.86482815977293,-150.7663809633073Q0,0,-134.87585753631777,-144.9569006768664Z"/><path fill="rgb(254, 235, 159)" d="M-120.67646507212433,-156.97512789514252A198,198,0,0,1,-114.51087002436682,-161.5278943286966Q0,0,171.22458381325222,30.95386725400494L190.20185569999,38.20018440112801L169.89834096279068,37.5573393372231Q0,0,-120.67646507212433,-156.97512789514252Z"/><path fill="rgb(69, 148, 180)" d="M-89.21672715609192,-176.76078636268693A198,198,0,0,1,-82.30896504244649,-180.08118800596947Q0,0,-154.225341815941,80.56391215523338L-173.6586771238918,86.4792683802303L-157.22774908701794,74.53478997776625Q0,0,-89.21672715609192,-176.76078636268693Z"/><path fill="rgb(231, 91, 73)" d="M-72.23408228669891,-184.35356616078357A198,198,0,0,1,-65.04519075580183,-187.0110241657998Q0,0,-47.993958284799824,-167.25005222168662L-49.891382677185625,-187.47493148300822L-41.48516018819248,-168.98219280196363Q0,0,-72.23408228669891,-184.35356616078357Z"/><path fill="rgb(130, 204, 165)" d="M-36.51146126567219,-194.60450456308897A198,198,0,0,1,-28.952605117829215,-195.8717607438373Q0,0,-15.894473706719983,-173.2725186103855L-13.97904679985128,-193.49570085810063L-9.176645144339327,-173.75784639519125Q0,0,-36.51146126567219,-194.60450456308897Z"/><path fill="rgb(67, 125, 179)" d="M44.897243691387125,192.84251997139066A198,198,0,0,1,33.13973803531298,195.2069613588379Q0,0,79.70193242052136,154.6725637223184L83.599618508317,175.0631422809035L70.19148242008653,159.2141821436479Q0,0,44.897243691387125,192.84251997139066Z"/><path fill="rgb(200, 49, 74)" d="M13.681012927191324,197.52678270372863A198,198,0,0,1,1.697173014922931,197.99272613850596Q0,0,-15.715301906978208,173.28886082484507L-23.364915850790513,192.58785192032616L-26.177796253392128,172.0195424459555Q0,0,13.681012927191324,197.52678270372863Z"/><path fill="rgb(254, 221, 141)" d="M78.96163563852467,181.57384199627674A198,198,0,0,1,63.74003487163146,187.4598835872977Q0,0,143.52403111645694,98.37099416028234L155.3650302746656,116.17963404896848L134.93522770359107,109.85665352895121Q0,0,78.96163563852467,181.57384199627674Z"/><path fill="rgb(77, 102, 172)" d="M152.9168598071851,125.77930667128713A198,198,0,0,1,138.988622101246,141.01830706116505Q0,0,109.29316154597484,135.39204127010365L113.81998737854646,157.10191110596818L94.60111804060989,146.03639431821986Q0,0,152.9168598071851,125.77930667128713Z"/><path fill="rgb(158, 1, 66)" d="M197.53947318379522,-13.496537862305257A198,198,0,0,1,196.49020504648055,24.404903621854867Q0,0,167.86577208793102,45.793914020563875L181.41217986261515,68.74315236802987L156.0589271484135,76.95200619403091Q0,0,197.53947318379522,-13.496537862305257Z"/><path fill="rgb(254, 203, 123)" d="M9.154025652550505,-197.78828027553212A198,198,0,0,1,91.18412757731255,-175.75396120134644Q0,0,101.28932455215802,-141.47958415180474L144.13737620630454,-129.84766759692772L151.24882188204825,-86.02205460980599Q0,0,9.154025652550505,-197.78828027553212Z"/></g><g><g id="information" transform="rotate(-76.21749644132372) translate(209,0)"><text x="8" dy="0.35em" style="font-family: Arial, sans-serif; font-size: 10px; fill: black; font-weight: bold;">information (22)</text></g><g id="visualization" transform="rotate(-37.00262034102227) translate(209,0)"><text x="8" dy="0.35em" style="font-family: Arial, sans-serif; font-size: 10px; fill: black; font-weight: bold;">visualization (36)</text></g><g id="abstract" transform="rotate(-2.173086282117822) translate(209,0)"><text x="8" dy="0.35em" style="font-family: Arial, sans-serif; font-size: 10px; fill: black; font-weight: bold;">abstract (15)</text></g><g id="datum" transform="rotate(20.75337652156621) translate(209,0)"><text x="8" dy="0.35em" style="font-family: Arial, sans-serif; font-size: 10px; fill: black; font-weight: bold;">datum (17)</text></g><g id="visual" transform="rotate(39.9209747183385) translate(209,0)"><text x="8" dy="0.35em" style="font-family: Arial, sans-serif; font-size: 10px; fill: black; font-weight: bold;">visual (9)</text></g><g id="representation" transform="rotate(54.076753439228526) translate(209,0)"><text x="8" dy="0.35em" style="font-family: Arial, sans-serif; font-size: 10px; fill: black; font-weight: bold;">representation (9)</text></g><g id="interactive" transform="rotate(66.97957729114796) translate(209,0)"><text x="8" dy="0.35em" style="font-family: Arial, sans-serif; font-size: 10px; fill: black; font-weight: bold;">interactive (7)</text></g><g id="use" transform="rotate(77.3764914051263) translate(209,0)"><text x="8" dy="0.35em" style="font-family: Arial, sans-serif; font-size: 10px; fill: black; font-weight: bold;">use (5)</text></g><g id="computer" transform="rotate(87.77340551910459) translate(209,0)"><text x="8" dy="0.35em" style="font-family: Arial, sans-serif; font-size: 10px; fill: black; font-weight: bold;">computer (7)</text></g><g id="graphic" transform="rotate(96.91736476411236) translate(209,0)"><text x="8" dy="0.35em" transform="rotate(180) translate(-16)" text-anchor="end" style="font-family: Arial, sans-serif; font-size: 10px; fill: black; font-weight: bold;">graphic (3)</text></g><g id="infovis" transform="rotate(102.92893683669365) translate(209,0)"><text x="8" dy="0.35em" transform="rotate(180) translate(-16)" text-anchor="end" style="font-family: Arial, sans-serif; font-size: 10px; fill: black; font-weight: bold;">infovis (2)</text></g><g id="reinforce" transform="rotate(108.31403147478969) translate(209,0)"><text x="8" dy="0.35em" transform="rotate(180) translate(-16)" text-anchor="end" style="font-family: Arial, sans-serif; font-size: 10px; fill: black; font-weight: bold;">reinforce (2)</text></g><g id="human" transform="rotate(113.69912611288572) translate(209,0)"><text x="8" dy="0.35em" transform="rotate(180) translate(-16)" text-anchor="end" style="font-family: Arial, sans-serif; font-size: 10px; fill: black; font-weight: bold;">human (2)</text></g><g id="cognition" transform="rotate(120.33717561995229) translate(209,0)"><text x="8" dy="0.35em" transform="rotate(180) translate(-16)" text-anchor="end" style="font-family: Arial, sans-serif; font-size: 10px; fill: black; font-weight: bold;">cognition (4)</text></g><g id="enable" transform="rotate(126.97522512701889) translate(209,0)"><text x="8" dy="0.35em" transform="rotate(180) translate(-16)" text-anchor="end" style="font-family: Arial, sans-serif; font-size: 10px; fill: black; font-weight: bold;">enable (2)</text></g><g id="user" transform="rotate(132.3603197651149) translate(209,0)"><text x="8" dy="0.35em" transform="rotate(180) translate(-16)" text-anchor="end" style="font-family: Arial, sans-serif; font-size: 10px; fill: black; font-weight: bold;">user (2)</text></g><g id="amplify" transform="rotate(138.99836927218146) translate(209,0)"><text x="8" dy="0.35em" transform="rotate(180) translate(-16)" text-anchor="end" style="font-family: Arial, sans-serif; font-size: 10px; fill: black; font-weight: bold;">amplify (4)</text></g><g id="map" transform="rotate(146.88937364821862) translate(209,0)"><text x="8" dy="0.35em" transform="rotate(180) translate(-16)" text-anchor="end" style="font-family: Arial, sans-serif; font-size: 10px; fill: black; font-weight: bold;">map (4)</text></g><g id="data" transform="rotate(154.78037802425578) translate(209,0)"><text x="8" dy="0.35em" transform="rotate(180) translate(-16)" text-anchor="end" style="font-family: Arial, sans-serif; font-size: 10px; fill: black; font-weight: bold;">data (4)</text></g><g id="structure" transform="rotate(161.41842753132235) translate(209,0)"><text x="8" dy="0.35em" transform="rotate(180) translate(-16)" text-anchor="end" style="font-family: Arial, sans-serif; font-size: 10px; fill: black; font-weight: bold;">structure (2)</text></g><g id="geographic" transform="rotate(166.8035221694184) translate(209,0)"><text x="8" dy="0.35em" transform="rotate(180) translate(-16)" text-anchor="end" style="font-family: Arial, sans-serif; font-size: 10px; fill: black; font-weight: bold;">geographic (2)</text></g><g id="technique" transform="rotate(172.1886168075144) translate(209,0)"><text x="8" dy="0.35em" transform="rotate(180) translate(-16)" text-anchor="end" style="font-family: Arial, sans-serif; font-size: 10px; fill: black; font-weight: bold;">technique (2)</text></g><g id="contrast" transform="rotate(177.5737114456104) translate(209,0)"><text x="8" dy="0.35em" transform="rotate(180) translate(-16)" text-anchor="end" style="font-family: Arial, sans-serif; font-size: 10px; fill: black; font-weight: bold;">contrast (2)</text></g><g id="scientific" transform="rotate(184.21176095267703) translate(209,0)"><text x="8" dy="0.35em" transform="rotate(180) translate(-16)" text-anchor="end" style="font-family: Arial, sans-serif; font-size: 10px; fill: black; font-weight: bold;">scientific (4)</text></g><g id="science" transform="rotate(190.84981045974365) translate(209,0)"><text x="8" dy="0.35em" transform="rotate(180) translate(-16)" text-anchor="end" style="font-family: Arial, sans-serif; font-size: 10px; fill: black; font-weight: bold;">science (2)</text></g><g id="sensory" transform="rotate(196.23490509783966) translate(209,0)"><text x="8" dy="0.35em" transform="rotate(180) translate(-16)" text-anchor="end" style="font-family: Arial, sans-serif; font-size: 10px; fill: black; font-weight: bold;">sensory (2)</text></g><g id="represent" transform="rotate(201.61999973593566) translate(209,0)"><text x="8" dy="0.35em" transform="rotate(180) translate(-16)" text-anchor="end" style="font-family: Arial, sans-serif; font-size: 10px; fill: black; font-weight: bold;">represent (2)</text></g><g id="take" transform="rotate(207.00509437403173) translate(209,0)"><text x="8" dy="0.35em" transform="rotate(180) translate(-16)" text-anchor="end" style="font-family: Arial, sans-serif; font-size: 10px; fill: black; font-weight: bold;">take (2)</text></g><g id="advantage" transform="rotate(212.39018901212773) translate(209,0)"><text x="8" dy="0.35em" transform="rotate(180) translate(-16)" text-anchor="end" style="font-family: Arial, sans-serif; font-size: 10px; fill: black; font-weight: bold;">advantage (2)</text></g><g id="screen" transform="rotate(219.02823851919425) translate(209,0)"><text x="8" dy="0.35em" transform="rotate(180) translate(-16)" text-anchor="end" style="font-family: Arial, sans-serif; font-size: 10px; fill: black; font-weight: bold;">screen (4)</text></g><g id="space" transform="rotate(226.91924289523143) translate(209,0)"><text x="8" dy="0.35em" transform="rotate(180) translate(-16)" text-anchor="end" style="font-family: Arial, sans-serif; font-size: 10px; fill: black; font-weight: bold;">space (4)</text></g><g id="kind" transform="rotate(233.55729240229806) translate(209,0)"><text x="8" dy="0.35em" transform="rotate(180) translate(-16)" text-anchor="end" style="font-family: Arial, sans-serif; font-size: 10px; fill: black; font-weight: bold;">kind (2)</text></g><g id="coordinate" transform="rotate(238.942387040394) translate(209,0)"><text x="8" dy="0.35em" transform="rotate(180) translate(-16)" text-anchor="end" style="font-family: Arial, sans-serif; font-size: 10px; fill: black; font-weight: bold;">coordinate (2)</text></g><g id="unstructured" transform="rotate(244.32748167849007) translate(209,0)"><text x="8" dy="0.35em" transform="rotate(180) translate(-16)" text-anchor="end" style="font-family: Arial, sans-serif; font-size: 10px; fill: black; font-weight: bold;">unstructured (2)</text></g><g id="criterion" transform="rotate(249.71257631658608) translate(209,0)"><text x="8" dy="0.35em" transform="rotate(180) translate(-16)" text-anchor="end" style="font-family: Arial, sans-serif; font-size: 10px; fill: black; font-weight: bold;">criterion (2)</text></g><g id="record" transform="rotate(255.0976709546821) translate(209,0)"><text x="8" dy="0.35em" transform="rotate(180) translate(-16)" text-anchor="end" style="font-family: Arial, sans-serif; font-size: 10px; fill: black; font-weight: bold;">record (2)</text></g><g id="spatial" transform="rotate(260.48276559277815) translate(209,0)"><text x="8" dy="0.35em" transform="rotate(180) translate(-16)" text-anchor="end" style="font-family: Arial, sans-serif; font-size: 10px; fill: black; font-weight: bold;">spatial (2)</text></g><g id="temporal" transform="rotate(265.86786023087416) translate(209,0)"><text x="8" dy="0.35em" transform="rotate(180) translate(-16)" text-anchor="end" style="font-family: Arial, sans-serif; font-size: 10px; fill: black; font-weight: bold;">temporal (2)</text></g></g></g></svg>