<svg xmlns="http://www.w3.org/2000/svg" width="870" height="600"><rect width="870" height="600" x="0" y="0" fill="#ffffff" id="background"/><g transform="translate(25,35)" id="visualization"><g><rect x="0" y="0" height="16.032786885245898" width="6" fill="black"><title>Compra: 2</title></rect><rect x="0" y="24.032786885245898" height="24.049180327868854" width="6" fill="black"><title>Salud: 3</title></rect><rect x="0" y="56.08196721311475" height="24.04918032786884" width="6" fill="black"><title>Hogar: 3</title></rect><rect x="0" y="88.13114754098359" height="40.08196721311475" width="6" fill="black"><title>Cocina: 5</title></rect><rect x="0" y="136.21311475409834" height="64.13114754098359" width="6" fill="black"><title>Info gral: 8</title></rect><rect x="0" y="208.34426229508193" height="64.13114754098365" width="6" fill="black"><title>General: 8</title></rect><rect x="0" y="280.4754098360656" height="88.18032786885243" width="6" fill="black"><title>Intercambio: 11</title></rect><rect x="779" y="20" height="112.22950819672133" width="6" fill="black"><title>alto: 14</title></rect><rect x="779" y="140.22950819672133" height="160.327868852459" width="6" fill="black"><title>medio: 20</title></rect><rect x="0" y="376.655737704918" height="168.344262295082" width="6" fill="black"><title>Facultad: 21</title></rect><rect x="779" y="308.55737704918033" height="216.44262295081967" width="6" fill="black"><title>bajo: 27</title></rect></g><g fill="none" stroke-opacity="1"><g style="mix-blend-mode: multiply;"><path d="M6,32.04918032786885C392.5,32.04918032786885,392.5,36.0327868852459,779,36.0327868852459" stroke="#39df04" stroke-width="16.0327868852459"/><title>Salud → alto: 2</title></g><g style="mix-blend-mode: multiply;"><path d="M6,12.024590163934427C392.5,12.024590163934427,392.5,144.2377049180328,779,144.2377049180328" stroke="#ff7f0e" stroke-width="8.01639344262295"/><title>Compra → medio: 1</title></g><g style="mix-blend-mode: multiply;"><path d="M6,112.18032786885244C392.5,112.18032786885244,392.5,332.60655737704917,779,332.60655737704917" stroke="#1f77b4" stroke-width="32.0655737704918"/><title>Cocina → bajo: 4</title></g><g style="mix-blend-mode: multiply;"><path d="M6,468.84426229508193C392.5,468.84426229508193,392.5,256.4672131147541,779,256.4672131147541" stroke="#dbd024" stroke-width="88.18032786885246"/><title>Facultad → medio: 11</title></g><g style="mix-blend-mode: multiply;"><path d="M6,168.27868852459014C392.5,168.27868852459014,392.5,380.7049180327869,779,380.7049180327869" stroke="#8c564b" stroke-width="64.1311475409836"/><title>Info gral → bajo: 8</title></g><g style="mix-blend-mode: multiply;"><path d="M6,528.967213114754C392.5,528.967213114754,392.5,508.9672131147541,779,508.9672131147541" stroke="#dbd024" stroke-width="32.0655737704918"/><title>Facultad → bajo: 4</title></g><g style="mix-blend-mode: multiply;"><path d="M6,64.09836065573771C392.5,64.09836065573771,392.5,52.0655737704918,779,52.0655737704918" stroke="#9b9b9b" stroke-width="16.0327868852459"/><title>Hogar → alto: 2</title></g><g style="mix-blend-mode: multiply;"><path d="M6,312.5409836065574C392.5,312.5409836065574,392.5,196.344262295082,779,196.344262295082" stroke="#e377c2" stroke-width="32.0655737704918"/><title>Intercambio → medio: 4</title></g><g style="mix-blend-mode: multiply;"><path d="M6,400.70491803278685C392.5,400.70491803278685,392.5,108.18032786885246,779,108.18032786885246" stroke="#dbd024" stroke-width="48.09836065573771"/><title>Facultad → alto: 6</title></g><g style="mix-blend-mode: multiply;"><path d="M6,76.12295081967213C392.5,76.12295081967213,392.5,152.25409836065575,779,152.25409836065575" stroke="#9b9b9b" stroke-width="8.01639344262295"/><title>Hogar → medio: 1</title></g><g style="mix-blend-mode: multiply;"><path d="M6,348.61475409836066C392.5,348.61475409836066,392.5,472.89344262295083,779,472.89344262295083" stroke="#e377c2" stroke-width="40.08196721311475"/><title>Intercambio → bajo: 5</title></g><g style="mix-blend-mode: multiply;"><path d="M6,92.13934426229507C392.5,92.13934426229507,392.5,64.09016393442623,779,64.09016393442623" stroke="#1f77b4" stroke-width="8.01639344262295"/><title>Cocina → alto: 1</title></g><g style="mix-blend-mode: multiply;"><path d="M6,4.008196721311475C392.5,4.008196721311475,392.5,24.008196721311474,779,24.008196721311474" stroke="#ff7f0e" stroke-width="8.01639344262295"/><title>Compra → alto: 1</title></g><g style="mix-blend-mode: multiply;"><path d="M6,288.4918032786885C392.5,288.4918032786885,392.5,76.11475409836066,779,76.11475409836066" stroke="#e377c2" stroke-width="16.0327868852459"/><title>Intercambio → alto: 2</title></g><g style="mix-blend-mode: multiply;"><path d="M6,252.43442622950815C392.5,252.43442622950815,392.5,432.811475409836,779,432.811475409836" stroke="#d62728" stroke-width="40.08196721311475"/><title>General → bajo: 5</title></g><g style="mix-blend-mode: multiply;"><path d="M6,44.07377049180327C392.5,44.07377049180327,392.5,312.5655737704918,779,312.5655737704918" stroke="#39df04" stroke-width="8.01639344262295"/><title>Salud → bajo: 1</title></g><g style="mix-blend-mode: multiply;"><path d="M6,220.36885245901635C392.5,220.36885245901635,392.5,168.28688524590166,779,168.28688524590166" stroke="#d62728" stroke-width="24.049180327868854"/><title>General → medio: 3</title></g></g><g><text x="10" y="8.016393442622949" text-anchor="start"><tspan alignment-baseline="middle" x="10" style="font-family: Arial, sans-serif; font-size: 10px; fill: black; font-weight: bold;">Compra</tspan></text><text x="10" y="36.057377049180324" text-anchor="start"><tspan alignment-baseline="middle" x="10" style="font-family: Arial, sans-serif; font-size: 10px; fill: black; font-weight: bold;">Salud</tspan></text><text x="10" y="68.10655737704917" text-anchor="start"><tspan alignment-baseline="middle" x="10" style="font-family: Arial, sans-serif; font-size: 10px; fill: black; font-weight: bold;">Hogar</tspan></text><text x="10" y="108.17213114754097" text-anchor="start"><tspan alignment-baseline="middle" x="10" style="font-family: Arial, sans-serif; font-size: 10px; fill: black; font-weight: bold;">Cocina</tspan></text><text x="10" y="168.27868852459014" text-anchor="start"><tspan alignment-baseline="middle" x="10" style="font-family: Arial, sans-serif; font-size: 10px; fill: black; font-weight: bold;">Info gral</tspan></text><text x="10" y="240.40983606557376" text-anchor="start"><tspan alignment-baseline="middle" x="10" style="font-family: Arial, sans-serif; font-size: 10px; fill: black; font-weight: bold;">General</tspan></text><text x="10" y="324.5655737704918" text-anchor="start"><tspan alignment-baseline="middle" x="10" style="font-family: Arial, sans-serif; font-size: 10px; fill: black; font-weight: bold;">Intercambio</tspan></text><text x="775" y="76.11475409836066" text-anchor="end"><tspan alignment-baseline="middle" x="775" style="font-family: Arial, sans-serif; font-size: 10px; fill: black; font-weight: bold;">alto</tspan></text><text x="775" y="220.39344262295083" text-anchor="end"><tspan alignment-baseline="middle" x="775" style="font-family: Arial, sans-serif; font-size: 10px; fill: black; font-weight: bold;">medio</tspan></text><text x="10" y="460.827868852459" text-anchor="start"><tspan alignment-baseline="middle" x="10" style="font-family: Arial, sans-serif; font-size: 10px; fill: black; font-weight: bold;">Facultad</tspan></text><text x="775" y="416.77868852459017" text-anchor="end"><tspan alignment-baseline="middle" x="775" style="font-family: Arial, sans-serif; font-size: 10px; fill: black; font-weight: bold;">bajo</tspan></text></g><g><text x="3" y="-4" text-anchor="middle" style="font-family: Arial, sans-serif; font-size: 12px; fill: rgb(123, 123, 123); font-weight: bold;">Tipo</text><text x="782" y="16" text-anchor="middle" style="font-family: Arial, sans-serif; font-size: 12px; fill: rgb(123, 123, 123); font-weight: bold;">Nivel de necesidad</text></g></g></svg>