<svg xmlns="http://www.w3.org/2000/svg" width="805" height="600"><rect width="805" height="600" x="0" y="0" fill="#FFFFFF" id="background"/><g transform="translate(10,10)" id="visualization"><g><rect x="0" y="0" height="19.09722222222222" width="5" fill="black"><title>Salud: 5</title></rect><rect x="0" y="24.09722222222222" height="22.916666666666686" width="5" fill="black"><title>Hogar: 6</title></rect><rect x="0" y="52.01388888888891" height="30.55555555555555" width="5" fill="black"><title>Compra: 8</title></rect><rect x="0" y="87.56944444444446" height="42.013888888888886" width="5" fill="black"><title>Cocina: 11</title></rect><rect x="0" y="134.58333333333334" height="87.84722222222223" width="5" fill="black"><title>Intercambio: 23</title></rect><rect x="0" y="227.43055555555557" height="129.86111111111106" width="5" fill="black"><title>Info gral: 34</title></rect><rect x="780" y="10" height="152.77777777777777" width="5" fill="black"><title>alto: 40</title></rect><rect x="780" y="167.77777777777777" height="194.79166666666669" width="5" fill="black"><title>medio: 51</title></rect><rect x="780" y="367.56944444444446" height="202.43055555555554" width="5" fill="black"><title>bajo: 53</title></rect><rect x="0" y="362.29166666666663" height="217.70833333333337" width="5" fill="black"><title>Facultad: 57</title></rect></g><g fill="none" stroke-opacity="1"><g style="mix-blend-mode: multiply;"><path d="M5,3.8194444444444446C392.5,3.8194444444444446,392.5,13.819444444444445,780,13.819444444444445" stroke="#aaa6a9" stroke-width="7.638888888888889"/><title>Salud → alto: 2</title></g><g style="mix-blend-mode: multiply;"><path d="M5,65.38194444444447C392.5,65.38194444444447,392.5,184.96527777777777,780,184.96527777777777" stroke="#45bef5" stroke-width="11.458333333333334"/><title>Compra → medio: 3</title></g><g style="mix-blend-mode: multiply;"><path d="M5,116.21527777777779C392.5,116.21527777777779,392.5,403.85416666666663,780,403.85416666666663" stroke="#f5a623" stroke-width="26.736111111111114"/><title>Cocina → bajo: 7</title></g><g style="mix-blend-mode: multiply;"><path d="M5,503.61111111111103C392.5,503.61111111111103,392.5,316.7361111111111,780,316.7361111111111" stroke="#2ca02c" stroke-width="91.66666666666667"/><title>Facultad → medio: 24</title></g><g style="mix-blend-mode: multiply;"><path d="M5,317.18750000000006C392.5,317.18750000000006,392.5,499.34027777777777,780,499.34027777777777" stroke="#f1102b" stroke-width="80.20833333333334"/><title>Info gral → bajo: 21</title></g><g style="mix-blend-mode: multiply;"><path d="M5,564.7222222222222C392.5,564.7222222222222,392.5,554.7222222222223,780,554.7222222222223" stroke="#2ca02c" stroke-width="30.555555555555557"/><title>Facultad → bajo: 8</title></g><g style="mix-blend-mode: multiply;"><path d="M5,29.82638888888889C392.5,29.82638888888889,392.5,23.368055555555557,780,23.368055555555557" stroke="#3032a0" stroke-width="11.458333333333334"/><title>Hogar → alto: 3</title></g><g style="mix-blend-mode: multiply;"><path d="M5,161.31944444444446C392.5,161.31944444444446,392.5,217.43055555555557,780,217.43055555555557" stroke="#ec7ed3" stroke-width="38.19444444444444"/><title>Intercambio → medio: 10</title></g><g style="mix-blend-mode: multiply;"><path d="M5,410.0347222222222C392.5,410.0347222222222,392.5,115.03472222222221,780,115.03472222222221" stroke="#2ca02c" stroke-width="95.48611111111111"/><title>Facultad → alto: 25</title></g><g style="mix-blend-mode: multiply;"><path d="M5,41.28472222222222C392.5,41.28472222222222,392.5,173.50694444444443,780,173.50694444444443" stroke="#3032a0" stroke-width="11.458333333333334"/><title>Hogar → medio: 3</title></g><g style="mix-blend-mode: multiply;"><path d="M5,201.42361111111114C392.5,201.42361111111114,392.5,438.22916666666663,780,438.22916666666663" stroke="#ec7ed3" stroke-width="42.01388888888889"/><title>Intercambio → bajo: 11</title></g><g style="mix-blend-mode: multiply;"><path d="M5,91.3888888888889C392.5,91.3888888888889,392.5,40.55555555555556,780,40.55555555555556" stroke="#f5a623" stroke-width="7.638888888888889"/><title>Cocina → alto: 2</title></g><g style="mix-blend-mode: multiply;"><path d="M5,55.83333333333335C392.5,55.83333333333335,392.5,32.916666666666664,780,32.916666666666664" stroke="#45bef5" stroke-width="7.638888888888889"/><title>Compra → alto: 2</title></g><g style="mix-blend-mode: multiply;"><path d="M5,138.4027777777778C392.5,138.4027777777778,392.5,48.19444444444444,780,48.19444444444444" stroke="#ec7ed3" stroke-width="7.638888888888889"/><title>Intercambio → alto: 2</title></g><g style="mix-blend-mode: multiply;"><path d="M5,13.368055555555557C392.5,13.368055555555557,392.5,373.29861111111114,780,373.29861111111114" stroke="#aaa6a9" stroke-width="11.458333333333334"/><title>Salud → bajo: 3</title></g><g style="mix-blend-mode: multiply;"><path d="M5,259.89583333333337C392.5,259.89583333333337,392.5,253.71527777777777,780,253.71527777777777" stroke="#f1102b" stroke-width="34.375"/><title>Info gral → medio: 9</title></g><g style="mix-blend-mode: multiply;"><path d="M5,76.8402777777778C392.5,76.8402777777778,392.5,384.75694444444446,780,384.75694444444446" stroke="#45bef5" stroke-width="11.458333333333334"/><title>Compra → bajo: 3</title></g><g style="mix-blend-mode: multiply;"><path d="M5,235.06944444444446C392.5,235.06944444444446,392.5,59.65277777777777,780,59.65277777777777" stroke="#f1102b" stroke-width="15.277777777777779"/><title>Info gral → alto: 4</title></g><g style="mix-blend-mode: multiply;"><path d="M5,99.02777777777779C392.5,99.02777777777779,392.5,194.5138888888889,780,194.5138888888889" stroke="#f5a623" stroke-width="7.638888888888889"/><title>Cocina → medio: 2</title></g></g><g><text x="9" y="9.54861111111111" text-anchor="start"><tspan alignment-baseline="middle" x="9" style="font-family: Arial, sans-serif; font-size: 10px; fill: black; font-weight: bold;">Salud</tspan></text><text x="9" y="35.555555555555564" text-anchor="start"><tspan alignment-baseline="middle" x="9" style="font-family: Arial, sans-serif; font-size: 10px; fill: black; font-weight: bold;">Hogar</tspan></text><text x="9" y="67.29166666666669" text-anchor="start"><tspan alignment-baseline="middle" x="9" style="font-family: Arial, sans-serif; font-size: 10px; fill: black; font-weight: bold;">Compra</tspan></text><text x="9" y="108.5763888888889" text-anchor="start"><tspan alignment-baseline="middle" x="9" style="font-family: Arial, sans-serif; font-size: 10px; fill: black; font-weight: bold;">Cocina</tspan></text><text x="9" y="178.50694444444446" text-anchor="start"><tspan alignment-baseline="middle" x="9" style="font-family: Arial, sans-serif; font-size: 10px; fill: black; font-weight: bold;">Intercambio</tspan></text><text x="9" y="292.3611111111111" text-anchor="start"><tspan alignment-baseline="middle" x="9" style="font-family: Arial, sans-serif; font-size: 10px; fill: black; font-weight: bold;">Info gral</tspan></text><text x="776" y="86.38888888888889" text-anchor="end"><tspan alignment-baseline="middle" x="776" style="font-family: Arial, sans-serif; font-size: 10px; fill: black; font-weight: bold;">alto</tspan></text><text x="776" y="265.1736111111111" text-anchor="end"><tspan alignment-baseline="middle" x="776" style="font-family: Arial, sans-serif; font-size: 10px; fill: black; font-weight: bold;">medio</tspan></text><text x="776" y="468.78472222222223" text-anchor="end"><tspan alignment-baseline="middle" x="776" style="font-family: Arial, sans-serif; font-size: 10px; fill: black; font-weight: bold;">bajo</tspan></text><text x="9" y="471.1458333333333" text-anchor="start"><tspan alignment-baseline="middle" x="9" style="font-family: Arial, sans-serif; font-size: 10px; fill: black; font-weight: bold;">Facultad</tspan></text></g><g><text x="2.5" y="-4" text-anchor="middle" style="font-family: Arial, sans-serif; font-size: 12px; fill: rgb(123, 123, 123); font-weight: bold;">Tipo</text><text x="782.5" y="6" text-anchor="middle" style="font-family: Arial, sans-serif; font-size: 12px; fill: rgb(123, 123, 123); font-weight: bold;">Nivel de necesidad</text></g></g></svg>
