<svg xmlns="http://www.w3.org/2000/svg" width="950" height="603"><rect width="950" height="603" x="0" y="0" fill="#FFFFFF" id="background"/><g transform="translate(10,16)" id="visualization"><g><rect x="0" y="0" height="18.055555555555557" width="6" fill="black"><title>Salud: 5</title></rect><rect x="0" y="26.055555555555557" height="21.666666666666686" width="6" fill="black"><title>Hogar: 6</title></rect><rect x="0" y="55.72222222222224" height="28.888888888888886" width="6" fill="black"><title>Compra: 8</title></rect><rect x="0" y="92.61111111111113" height="39.722222222222214" width="6" fill="black"><title>Cocina: 11</title></rect><rect x="0" y="140.33333333333334" height="57.77777777777777" width="6" fill="black"><title>Info gral: 16</title></rect><rect x="0" y="206.11111111111111" height="64.99999999999997" width="6" fill="black"><title>General: 18</title></rect><rect x="0" y="279.1111111111111" height="83.05555555555554" width="6" fill="black"><title>Intercambio: 23</title></rect><rect x="880" y="20" height="144.44444444444446" width="6" fill="black"><title>alto: 40</title></rect><rect x="880" y="172.44444444444446" height="184.16666666666663" width="6" fill="black"><title>medio: 51</title></rect><rect x="880" y="364.6111111111111" height="191.3888888888889" width="6" fill="black"><title>bajo: 53</title></rect><rect x="0" y="370.16666666666663" height="205.83333333333337" width="6" fill="black"><title>Facultad: 57</title></rect></g><g fill="none" stroke-opacity="1"><g style="mix-blend-mode: multiply;"><path d="M6,3.611111111111111C443,3.611111111111111,443,23.61111111111111,880,23.61111111111111" stroke="#7f7f7f" stroke-width="7.222222222222222"/><title>Salud → alto: 2</title></g><g style="mix-blend-mode: multiply;"><path d="M6,68.36111111111113C443,68.36111111111113,443,188.69444444444446,880,188.69444444444446" stroke="#ff7f0e" stroke-width="10.833333333333334"/><title>Compra → medio: 3</title></g><g style="mix-blend-mode: multiply;"><path d="M6,119.69444444444447C443,119.69444444444447,443,398.91666666666663,880,398.91666666666663" stroke="#1f77b4" stroke-width="25.27777777777778"/><title>Cocina → bajo: 7</title></g><g style="mix-blend-mode: multiply;"><path d="M6,503.7777777777777C443,503.7777777777777,443,313.27777777777777,880,313.27777777777777" stroke="#2ca02c" stroke-width="86.66666666666667"/><title>Facultad → medio: 24</title></g><g style="mix-blend-mode: multiply;"><path d="M6,174.6388888888889C443,174.6388888888889,443,435.0277777777777,880,435.0277777777777" stroke="#8c564b" stroke-width="46.94444444444444"/><title>Info gral → bajo: 13</title></g><g style="mix-blend-mode: multiply;"><path d="M6,561.5555555555555C443,561.5555555555555,443,541.5555555555555,880,541.5555555555555" stroke="#2ca02c" stroke-width="28.88888888888889"/><title>Facultad → bajo: 8</title></g><g style="mix-blend-mode: multiply;"><path d="M6,31.472222222222225C443,31.472222222222225,443,32.638888888888886,880,32.638888888888886" stroke="#9467bd" stroke-width="10.833333333333334"/><title>Hogar → alto: 3</title></g><g style="mix-blend-mode: multiply;"><path d="M6,304.38888888888886C443,304.38888888888886,443,251.8888888888889,880,251.8888888888889" stroke="#e377c2" stroke-width="36.111111111111114"/><title>Intercambio → medio: 10</title></g><g style="mix-blend-mode: multiply;"><path d="M6,415.30555555555554C443,415.30555555555554,443,119.30555555555557,880,119.30555555555557" stroke="#2ca02c" stroke-width="90.27777777777779"/><title>Facultad → alto: 25</title></g><g style="mix-blend-mode: multiply;"><path d="M6,42.30555555555556C443,42.30555555555556,443,177.86111111111111,880,177.86111111111111" stroke="#9467bd" stroke-width="10.833333333333334"/><title>Hogar → medio: 3</title></g><g style="mix-blend-mode: multiply;"><path d="M6,342.30555555555554C443,342.30555555555554,443,507.24999999999994,880,507.24999999999994" stroke="#e377c2" stroke-width="39.72222222222222"/><title>Intercambio → bajo: 11</title></g><g style="mix-blend-mode: multiply;"><path d="M6,96.22222222222224C443,96.22222222222224,443,48.88888888888889,880,48.88888888888889" stroke="#1f77b4" stroke-width="7.222222222222222"/><title>Cocina → alto: 2</title></g><g style="mix-blend-mode: multiply;"><path d="M6,59.33333333333336C443,59.33333333333336,443,41.66666666666667,880,41.66666666666667" stroke="#ff7f0e" stroke-width="7.222222222222222"/><title>Compra → alto: 2</title></g><g style="mix-blend-mode: multiply;"><path d="M6,282.7222222222222C443,282.7222222222222,443,70.55555555555556,880,70.55555555555556" stroke="#e377c2" stroke-width="7.222222222222222"/><title>Intercambio → alto: 2</title></g><g style="mix-blend-mode: multiply;"><path d="M6,12.63888888888889C443,12.63888888888889,443,370.02777777777777,880,370.02777777777777" stroke="#7f7f7f" stroke-width="10.833333333333334"/><title>Salud → bajo: 3</title></g><g style="mix-blend-mode: multiply;"><path d="M6,145.75C443,145.75,443,206.75000000000003,880,206.75000000000003" stroke="#8c564b" stroke-width="10.833333333333334"/><title>Info gral → medio: 3</title></g><g style="mix-blend-mode: multiply;"><path d="M6,79.19444444444447C443,79.19444444444447,443,380.8611111111111,880,380.8611111111111" stroke="#ff7f0e" stroke-width="10.833333333333334"/><title>Compra → bajo: 3</title></g><g style="mix-blend-mode: multiply;"><path d="M6,231.3888888888889C443,231.3888888888889,443,223.00000000000006,880,223.00000000000006" stroke="#d62728" stroke-width="21.666666666666668"/><title>General → medio: 6</title></g><g style="mix-blend-mode: multiply;"><path d="M6,213.33333333333334C443,213.33333333333334,443,59.72222222222222,880,59.72222222222222" stroke="#d62728" stroke-width="14.444444444444445"/><title>General → alto: 4</title></g><g style="mix-blend-mode: multiply;"><path d="M6,256.6666666666667C443,256.6666666666667,443,472.9444444444444,880,472.9444444444444" stroke="#d62728" stroke-width="28.88888888888889"/><title>General → bajo: 8</title></g><g style="mix-blend-mode: multiply;"><path d="M6,103.44444444444447C443,103.44444444444447,443,197.72222222222226,880,197.72222222222226" stroke="#1f77b4" stroke-width="7.222222222222222"/><title>Cocina → medio: 2</title></g></g><g><text x="10" y="9.027777777777779" text-anchor="start"><tspan alignment-baseline="middle" x="10" style="font-family: Arial, sans-serif; font-size: 10px; fill: black; font-weight: bold;">Salud</tspan></text><text x="10" y="36.8888888888889" text-anchor="start"><tspan alignment-baseline="middle" x="10" style="font-family: Arial, sans-serif; font-size: 10px; fill: black; font-weight: bold;">Hogar</tspan></text><text x="10" y="70.16666666666669" text-anchor="start"><tspan alignment-baseline="middle" x="10" style="font-family: Arial, sans-serif; font-size: 10px; fill: black; font-weight: bold;">Compra</tspan></text><text x="10" y="112.47222222222223" text-anchor="start"><tspan alignment-baseline="middle" x="10" style="font-family: Arial, sans-serif; font-size: 10px; fill: black; font-weight: bold;">Cocina</tspan></text><text x="10" y="169.22222222222223" text-anchor="start"><tspan alignment-baseline="middle" x="10" style="font-family: Arial, sans-serif; font-size: 10px; fill: black; font-weight: bold;">Info gral</tspan></text><text x="10" y="238.6111111111111" text-anchor="start"><tspan alignment-baseline="middle" x="10" style="font-family: Arial, sans-serif; font-size: 10px; fill: black; font-weight: bold;">General</tspan></text><text x="10" y="320.63888888888886" text-anchor="start"><tspan alignment-baseline="middle" x="10" style="font-family: Arial, sans-serif; font-size: 10px; fill: black; font-weight: bold;">Intercambio</tspan></text><text x="876" y="92.22222222222223" text-anchor="end"><tspan alignment-baseline="middle" x="876" style="font-family: Arial, sans-serif; font-size: 10px; fill: black; font-weight: bold;">alto</tspan></text><text x="876" y="264.52777777777777" text-anchor="end"><tspan alignment-baseline="middle" x="876" style="font-family: Arial, sans-serif; font-size: 10px; fill: black; font-weight: bold;">medio</tspan></text><text x="876" y="460.30555555555554" text-anchor="end"><tspan alignment-baseline="middle" x="876" style="font-family: Arial, sans-serif; font-size: 10px; fill: black; font-weight: bold;">bajo</tspan></text><text x="10" y="473.0833333333333" text-anchor="start"><tspan alignment-baseline="middle" x="10" style="font-family: Arial, sans-serif; font-size: 10px; fill: black; font-weight: bold;">Facultad</tspan></text></g><g><text x="3" y="-4" text-anchor="middle" style="font-family: Arial, sans-serif; font-size: 12px; fill: rgb(123, 123, 123); font-weight: bold;">Tipo</text><text x="883" y="16" text-anchor="middle" style="font-family: Arial, sans-serif; font-size: 12px; fill: rgb(123, 123, 123); font-weight: bold;">Nivel de necesidad</text></g></g></svg>
