<svg xmlns="http://www.w3.org/2000/svg" width="805" height="600"><rect width="805" height="600" x="0" y="0" fill="#FFFFFF" id="background"/><g transform="translate(10,10)" id="visualization"><g><rect x="0" y="0" height="215.72916666666669" width="5" fill="black"><title>Facultad: 57</title></rect><rect x="780" y="12.5" height="200.59027777777777" width="5" fill="black"><title>bajo: 53</title></rect><rect x="780" y="218.09027777777777" height="193.02083333333331" width="5" fill="black"><title>medio: 51</title></rect><rect x="780" y="416.1111111111111" height="151.3888888888889" width="5" fill="black"><title>alto: 40</title></rect><rect x="0" y="220.72916666666669" height="87.04861111111114" width="5" fill="black"><title>Intercambio: 23</title></rect><rect x="0" y="312.7777777777778" height="68.125" width="5" fill="black"><title>General: 18</title></rect><rect x="0" y="385.9027777777778" height="60.55555555555554" width="5" fill="black"><title>Info gral: 16</title></rect><rect x="0" y="451.45833333333337" height="41.63194444444446" width="5" fill="black"><title>Cocina: 11</title></rect><rect x="0" y="498.0902777777778" height="30.27777777777783" width="5" fill="black"><title>Compra: 8</title></rect><rect x="0" y="533.3680555555557" height="22.708333333333258" width="5" fill="black"><title>Hogar: 6</title></rect><rect x="0" y="561.0763888888889" height="18.923611111111086" width="5" fill="black"><title>Salud: 5</title></rect></g><g fill="none" stroke-opacity="1"><g style="mix-blend-mode: multiply;"><path d="M5,576.2152777777777C392.5,576.2152777777777,392.5,563.7152777777777,780,563.7152777777777" stroke="#7f7f7f" stroke-width="7.569444444444445"/><title>Salud → alto: 2</title></g><g style="mix-blend-mode: multiply;"><path d="M5,515.1215277777778C392.5,515.1215277777778,392.5,394.0798611111111,780,394.0798611111111" stroke="#ff7f0e" stroke-width="11.354166666666668"/><title>Compra → medio: 3</title></g><g style="mix-blend-mode: multiply;"><path d="M5,464.70486111111114C392.5,464.70486111111114,392.5,177.13541666666666,780,177.13541666666666" stroke="#1f77b4" stroke-width="26.493055555555557"/><title>Cocina → bajo: 7</title></g><g style="mix-blend-mode: multiply;"><path d="M5,75.69444444444446C392.5,75.69444444444446,392.5,263.50694444444446,780,263.50694444444446" stroke="#52c552" stroke-width="90.83333333333334"/><title>Facultad → medio: 24</title></g><g style="mix-blend-mode: multiply;"><path d="M5,410.5034722222223C392.5,410.5034722222223,392.5,139.28819444444446,780,139.28819444444446" stroke="#e6da66" stroke-width="49.20138888888889"/><title>Info gral → bajo: 13</title></g><g style="mix-blend-mode: multiply;"><path d="M5,15.13888888888889C392.5,15.13888888888889,392.5,27.63888888888889,780,27.63888888888889" stroke="#52c552" stroke-width="30.27777777777778"/><title>Facultad → bajo: 8</title></g><g style="mix-blend-mode: multiply;"><path d="M5,550.3993055555557C392.5,550.3993055555557,392.5,554.2534722222223,780,554.2534722222223" stroke="#9467bd" stroke-width="11.354166666666668"/><title>Hogar → alto: 3</title></g><g style="mix-blend-mode: multiply;"><path d="M5,281.28472222222223C392.5,281.28472222222223,392.5,327.8472222222222,780,327.8472222222222" stroke="#e67fc6" stroke-width="37.84722222222222"/><title>Intercambio → medio: 10</title></g><g style="mix-blend-mode: multiply;"><path d="M5,168.42013888888889C392.5,168.42013888888889,392.5,463.42013888888886,780,463.42013888888886" stroke="#52c552" stroke-width="94.61805555555556"/><title>Facultad → alto: 25</title></g><g style="mix-blend-mode: multiply;"><path d="M5,539.045138888889C392.5,539.045138888889,392.5,405.43402777777777,780,405.43402777777777" stroke="#9467bd" stroke-width="11.354166666666668"/><title>Hogar → medio: 3</title></g><g style="mix-blend-mode: multiply;"><path d="M5,241.5451388888889C392.5,241.5451388888889,392.5,63.59375,780,63.59375" stroke="#e67fc6" stroke-width="41.63194444444444"/><title>Intercambio → bajo: 11</title></g><g style="mix-blend-mode: multiply;"><path d="M5,489.3055555555556C392.5,489.3055555555556,392.5,537.2222222222222,780,537.2222222222222" stroke="#1f77b4" stroke-width="7.569444444444445"/><title>Cocina → alto: 2</title></g><g style="mix-blend-mode: multiply;"><path d="M5,524.5833333333334C392.5,524.5833333333334,392.5,544.7916666666666,780,544.7916666666666" stroke="#ff7f0e" stroke-width="7.569444444444445"/><title>Compra → alto: 2</title></g><g style="mix-blend-mode: multiply;"><path d="M5,303.9930555555556C392.5,303.9930555555556,392.5,514.5138888888888,780,514.5138888888888" stroke="#e67fc6" stroke-width="7.569444444444445"/><title>Intercambio → alto: 2</title></g><g style="mix-blend-mode: multiply;"><path d="M5,566.7534722222223C392.5,566.7534722222223,392.5,207.41319444444446,780,207.41319444444446" stroke="#7f7f7f" stroke-width="11.354166666666668"/><title>Salud → bajo: 3</title></g><g style="mix-blend-mode: multiply;"><path d="M5,440.78125000000006C392.5,440.78125000000006,392.5,375.15624999999994,780,375.15624999999994" stroke="#e6da66" stroke-width="11.354166666666668"/><title>Info gral → medio: 3</title></g><g style="mix-blend-mode: multiply;"><path d="M5,503.76736111111114C392.5,503.76736111111114,392.5,196.0590277777778,780,196.0590277777778" stroke="#ff7f0e" stroke-width="11.354166666666668"/><title>Compra → bajo: 3</title></g><g style="mix-blend-mode: multiply;"><path d="M5,354.4097222222223C392.5,354.4097222222223,392.5,358.125,780,358.125" stroke="#d62728" stroke-width="22.708333333333336"/><title>General → medio: 6</title></g><g style="mix-blend-mode: multiply;"><path d="M5,373.33333333333337C392.5,373.33333333333337,392.5,525.8680555555555,780,525.8680555555555" stroke="#d62728" stroke-width="15.13888888888889"/><title>General → alto: 4</title></g><g style="mix-blend-mode: multiply;"><path d="M5,327.91666666666674C392.5,327.91666666666674,392.5,99.54861111111111,780,99.54861111111111" stroke="#d62728" stroke-width="30.27777777777778"/><title>General → bajo: 8</title></g><g style="mix-blend-mode: multiply;"><path d="M5,481.73611111111114C392.5,481.73611111111114,392.5,384.61805555555554,780,384.61805555555554" stroke="#1f77b4" stroke-width="7.569444444444445"/><title>Cocina → medio: 2</title></g></g><g><text x="9" y="107.86458333333334" text-anchor="start"><tspan alignment-baseline="middle" x="9" style="font-family: Arial, sans-serif; font-size: 10px; fill: black; font-weight: bold;">Facultad</tspan></text><text x="776" y="112.79513888888889" text-anchor="end"><tspan alignment-baseline="middle" x="776" style="font-family: Arial, sans-serif; font-size: 10px; fill: black; font-weight: bold;">bajo</tspan></text><text x="776" y="314.60069444444446" text-anchor="end"><tspan alignment-baseline="middle" x="776" style="font-family: Arial, sans-serif; font-size: 10px; fill: black; font-weight: bold;">medio</tspan></text><text x="776" y="491.80555555555554" text-anchor="end"><tspan alignment-baseline="middle" x="776" style="font-family: Arial, sans-serif; font-size: 10px; fill: black; font-weight: bold;">alto</tspan></text><text x="9" y="264.2534722222223" text-anchor="start"><tspan alignment-baseline="middle" x="9" style="font-family: Arial, sans-serif; font-size: 10px; fill: black; font-weight: bold;">Intercambio</tspan></text><text x="9" y="346.8402777777778" text-anchor="start"><tspan alignment-baseline="middle" x="9" style="font-family: Arial, sans-serif; font-size: 10px; fill: black; font-weight: bold;">General</tspan></text><text x="9" y="416.1805555555556" text-anchor="start"><tspan alignment-baseline="middle" x="9" style="font-family: Arial, sans-serif; font-size: 10px; fill: black; font-weight: bold;">Info gral</tspan></text><text x="9" y="472.2743055555556" text-anchor="start"><tspan alignment-baseline="middle" x="9" style="font-family: Arial, sans-serif; font-size: 10px; fill: black; font-weight: bold;">Cocina</tspan></text><text x="9" y="513.2291666666667" text-anchor="start"><tspan alignment-baseline="middle" x="9" style="font-family: Arial, sans-serif; font-size: 10px; fill: black; font-weight: bold;">Compra</tspan></text><text x="9" y="544.7222222222223" text-anchor="start"><tspan alignment-baseline="middle" x="9" style="font-family: Arial, sans-serif; font-size: 10px; fill: black; font-weight: bold;">Hogar</tspan></text><text x="9" y="570.5381944444445" text-anchor="start"><tspan alignment-baseline="middle" x="9" style="font-family: Arial, sans-serif; font-size: 10px; fill: black; font-weight: bold;">Salud</tspan></text></g><g><text x="2.5" y="-4" text-anchor="middle" style="font-family: Arial, sans-serif; font-size: 12px; fill: rgb(123, 123, 123); font-weight: bold;">Tipo</text><text x="782.5" y="8.5" text-anchor="middle" style="font-family: Arial, sans-serif; font-size: 12px; fill: rgb(123, 123, 123); font-weight: bold;">Nivel de necesidad</text></g></g></svg>
