<svg xmlns="http://www.w3.org/2000/svg" width="850" height="600"><rect width="850" height="600" x="0" y="0" fill="#FFFFFF" id="background"/><g transform="translate(25,25)" id="visualization"><g><rect x="0" y="0" height="17.540983606557376" width="3" fill="black"><title>Compra: 2</title></rect><rect x="0" y="22.540983606557376" height="26.311475409836063" width="3" fill="black"><title>Salud: 3</title></rect><rect x="0" y="53.85245901639344" height="26.311475409836078" width="3" fill="black"><title>Hogar: 3</title></rect><rect x="0" y="85.16393442622952" height="43.85245901639344" width="3" fill="black"><title>Cocina: 5</title></rect><rect x="0" y="134.01639344262296" height="96.47540983606558" width="3" fill="black"><title>Intercambio: 11</title></rect><rect x="769" y="10" height="122.78688524590163" width="3" fill="black"><title>alto: 14</title></rect><rect x="0" y="235.49180327868854" height="140.32786885245898" width="3" fill="black"><title>Info gral: 16</title></rect><rect x="769" y="137.78688524590163" height="175.40983606557373" width="3" fill="black"><title>medio: 20</title></rect><rect x="0" y="380.8196721311475" height="184.1803278688525" width="3" fill="black"><title>Facultad: 21</title></rect><rect x="769" y="318.19672131147536" height="236.80327868852464" width="3" fill="black"><title>bajo: 27</title></rect></g><g fill="none" stroke-opacity="1"><g style="mix-blend-mode: multiply;"><path d="M3,31.311475409836063C386,31.311475409836063,386,27.540983606557376,769,27.540983606557376" stroke="#e377c2" stroke-width="17.540983606557376"/><title>Salud → alto: 2</title></g><g style="mix-blend-mode: multiply;"><path d="M3,13.155737704918032C386,13.155737704918032,386,142.17213114754097,769,142.17213114754097" stroke="#ff7f0e" stroke-width="8.770491803278688"/><title>Compra → medio: 1</title></g><g style="mix-blend-mode: multiply;"><path d="M3,111.47540983606558C386,111.47540983606558,386,344.5081967213114,769,344.5081967213114" stroke="#5a9fcf" stroke-width="35.08196721311475"/><title>Cocina → bajo: 4</title></g><g style="mix-blend-mode: multiply;"><path d="M3,481.68032786885243C386,481.68032786885243,386,264.9590163934426,769,264.9590163934426" stroke="#2cd82c" stroke-width="96.47540983606557"/><title>Facultad → medio: 11</title></g><g style="mix-blend-mode: multiply;"><path d="M3,318.8114754098361C386,318.8114754098361,386,462.9098360655737,769,462.9098360655737" stroke="#9467bd" stroke-width="114.01639344262294"/><title>Info gral → bajo: 13</title></g><g style="mix-blend-mode: multiply;"><path d="M3,547.4590163934425C386,547.4590163934425,386,537.4590163934425,769,537.4590163934425" stroke="#2cd82c" stroke-width="35.08196721311475"/><title>Facultad → bajo: 4</title></g><g style="mix-blend-mode: multiply;"><path d="M3,62.62295081967213C386,62.62295081967213,386,45.08196721311475,769,45.08196721311475" stroke="#d62728" stroke-width="17.540983606557376"/><title>Hogar → alto: 2</title></g><g style="mix-blend-mode: multiply;"><path d="M3,169.0983606557377C386,169.0983606557377,386,172.86885245901638,769,172.86885245901638" stroke="#78d8a6" stroke-width="35.08196721311475"/><title>Intercambio → medio: 4</title></g><g style="mix-blend-mode: multiply;"><path d="M3,407.1311475409836C386,407.1311475409836,386,106.47540983606557,769,106.47540983606557" stroke="#2cd82c" stroke-width="52.62295081967213"/><title>Facultad → alto: 6</title></g><g style="mix-blend-mode: multiply;"><path d="M3,75.77868852459017C386,75.77868852459017,386,150.94262295081967,769,150.94262295081967" stroke="#d62728" stroke-width="8.770491803278688"/><title>Hogar → medio: 1</title></g><g style="mix-blend-mode: multiply;"><path d="M3,208.5655737704918C386,208.5655737704918,386,383.9754098360655,769,383.9754098360655" stroke="#78d8a6" stroke-width="43.85245901639344"/><title>Intercambio → bajo: 5</title></g><g style="mix-blend-mode: multiply;"><path d="M3,89.54918032786887C386,89.54918032786887,386,58.23770491803278,769,58.23770491803278" stroke="#5a9fcf" stroke-width="8.770491803278688"/><title>Cocina → alto: 1</title></g><g style="mix-blend-mode: multiply;"><path d="M3,4.385245901639344C386,4.385245901639344,386,14.385245901639344,769,14.385245901639344" stroke="#ff7f0e" stroke-width="8.770491803278688"/><title>Compra → alto: 1</title></g><g style="mix-blend-mode: multiply;"><path d="M3,142.78688524590166C386,142.78688524590166,386,71.39344262295081,769,71.39344262295081" stroke="#78d8a6" stroke-width="17.540983606557376"/><title>Intercambio → alto: 2</title></g><g style="mix-blend-mode: multiply;"><path d="M3,44.467213114754095C386,44.467213114754095,386,322.5819672131147,769,322.5819672131147" stroke="#e377c2" stroke-width="8.770491803278688"/><title>Salud → bajo: 1</title></g><g style="mix-blend-mode: multiply;"><path d="M3,248.64754098360658C386,248.64754098360658,386,203.5655737704918,769,203.5655737704918" stroke="#9467bd" stroke-width="26.311475409836063"/><title>Info gral → medio: 3</title></g></g><g><text x="7" y="8.770491803278688" text-anchor="start"><tspan alignment-baseline="middle" x="7" style="font-family: Arial, sans-serif; font-size: 10px; fill: black; font-weight: bold;">Compra</tspan></text><text x="7" y="35.69672131147541" text-anchor="start"><tspan alignment-baseline="middle" x="7" style="font-family: Arial, sans-serif; font-size: 10px; fill: black; font-weight: bold;">Salud</tspan></text><text x="7" y="67.00819672131148" text-anchor="start"><tspan alignment-baseline="middle" x="7" style="font-family: Arial, sans-serif; font-size: 10px; fill: black; font-weight: bold;">Hogar</tspan></text><text x="7" y="107.09016393442624" text-anchor="start"><tspan alignment-baseline="middle" x="7" style="font-family: Arial, sans-serif; font-size: 10px; fill: black; font-weight: bold;">Cocina</tspan></text><text x="7" y="182.25409836065575" text-anchor="start"><tspan alignment-baseline="middle" x="7" style="font-family: Arial, sans-serif; font-size: 10px; fill: black; font-weight: bold;">Intercambio</tspan></text><text x="765" y="71.39344262295081" text-anchor="end"><tspan alignment-baseline="middle" x="765" style="font-family: Arial, sans-serif; font-size: 10px; fill: black; font-weight: bold;">alto</tspan></text><text x="7" y="305.655737704918" text-anchor="start"><tspan alignment-baseline="middle" x="7" style="font-family: Arial, sans-serif; font-size: 10px; fill: black; font-weight: bold;">Info gral</tspan></text><text x="765" y="225.4918032786885" text-anchor="end"><tspan alignment-baseline="middle" x="765" style="font-family: Arial, sans-serif; font-size: 10px; fill: black; font-weight: bold;">medio</tspan></text><text x="7" y="472.90983606557376" text-anchor="start"><tspan alignment-baseline="middle" x="7" style="font-family: Arial, sans-serif; font-size: 10px; fill: black; font-weight: bold;">Facultad</tspan></text><text x="765" y="436.5983606557377" text-anchor="end"><tspan alignment-baseline="middle" x="765" style="font-family: Arial, sans-serif; font-size: 10px; fill: black; font-weight: bold;">bajo</tspan></text></g><g><text x="1.5" y="-4" text-anchor="middle" style="font-family: Arial, sans-serif; font-size: 12px; fill: rgb(123, 123, 123); font-weight: bold;">Tipo</text><text x="770.5" y="6" text-anchor="middle" style="font-family: Arial, sans-serif; font-size: 12px; fill: rgb(123, 123, 123); font-weight: bold;">Nivel de necesidad</text></g></g></svg>
